<?xml version="1.0" encoding="utf-8"?>
<!DOCTYPE svg PUBLIC "-//W3C//DTD SVG 1.0//EN" "http://www.w3.org/TR/2001/REC-SVG-20010904/DTD/svg10.dtd">
<svg version="1.0" xmlns="http://www.w3.org/2000/svg" width="161px" height="170px" viewBox="0 0 161 170" preserveAspectRatio="xMidYMid meet">
 <g fill="#ffffff">
 </g>
 <g fill="#d6dae7">
  <path d="M66.75 162.05 c-16.85 -3.05 -31.65 -11.40 -43.65 -24.75 -0.90 -1 -1.85 -1.70 -2.05 -1.55 -0.25 0.10 -0.60 1.30 -0.80 2.60 -0.40 2.90 -1.45 4.15 -3.35 4.15 -2.30 0 -2.70 -1.55 -2 -7.65 0.35 -2.80 0.60 -6.40 0.60 -8 0 -3.55 1.15 -6.25 2.80 -6.65 0.85 -0.20 3.15 0.65 8.10 3 3.85 1.80 7.10 3.30 7.30 3.30 1.10 0 3.30 2.20 3.30 3.25 0 2.15 -1.30 2.90 -4.45 2.55 l-2.80 -0.35 3.25 3.05 c14.10 13.25 30.60 19.65 48.50 18.85 10.60 -0.45 18.35 -2.45 27.10 -6.85 5.20 -2.65 7.40 -3.05 9.25 -1.75 1.50 1.05 2.30 4.05 1.50 5.65 -1.55 3.20 -16 9.20 -26.80 11.15 -6.85 1.25 -18.75 1.25 -25.80 0z"/>
  <path d="M129.50 139 c-0.30 -0.55 -0.80 -3.10 -1.05 -5.60 -0.25 -2.50 -0.55 -5.15 -0.70 -5.85 -0.15 -0.70 -0.40 -2.80 -0.55 -4.65 -0.40 -3.85 0.10 -4.90 2.30 -4.90 1.90 0 3.10 1.55 3.40 4.50 0.10 1.40 0.40 2.65 0.65 2.75 1 0.65 7.20 -11.35 9.15 -17.75 4.55 -15 3.40 -32.90 -2.95 -45.90 -0.95 -2 -1.75 -3.80 -1.75 -4.05 0 -1.20 -6.70 -10.25 -10.60 -14.30 -5.65 -5.90 -10.25 -9.40 -17.20 -13.05 -6.75 -3.50 -7.70 -4.35 -7.70 -6.55 0 -2.35 0.80 -3.60 2.75 -4.45 1.55 -0.65 2 -0.60 4.45 0.35 3.70 1.35 12.55 6.70 16.75 10.15 13 10.45 23.05 26.80 26.05 42.30 1.30 6.50 1.50 8.65 1.50 16 0.05 7.65 -0.65 13.60 -2.30 20.20 -1.10 4.20 -4.45 12.55 -6.50 15.95 -0.95 1.60 -1.70 3.05 -1.70 3.20 0 0.15 0.95 0.15 2.05 -0.05 3.45 -0.55 5.40 1.50 3.95 4.20 -0.25 0.50 -2.25 1.60 -4.35 2.50 -2.15 0.90 -5.80 2.50 -8.10 3.60 -5.50 2.60 -6.80 2.80 -7.55 1.40z"/>
  <path d="M73.75 135.55 c-14.85 -0.25 -17.75 -0.45 -19.25 -1.15 -2.40 -1.10 -4.20 -2.90 -5.45 -5.35 -1.05 -2.05 -1.05 -2.30 -0.95 -37.20 l0.15 -35.20 1.50 -2.45 c2.20 -3.50 5.25 -5.25 9.75 -5.60 1.90 -0.10 3.50 -0.35 3.55 -0.55 0.40 -4.30 0.60 -4.90 1.65 -5.85 1.25 -1.10 1.65 -1.15 22.90 -1.65 3.85 -0.10 5.45 1.20 5.80 4.85 0.10 1.45 0.35 2.60 0.55 2.65 0.15 0 1.65 0.15 3.25 0.25 3.75 0.30 5.65 1.10 8.25 3.45 3.60 3.30 3.55 2.50 3.55 40.70 0 32.90 -0.05 33.85 -1.05 36.05 -1.25 2.80 -3.10 4.80 -5.65 6.10 -2.45 1.25 -5.25 1.35 -28.55 0.95z m26 -6.05 c3.70 -1.80 3.50 0.15 3.50 -37.20 0 -31.15 -0.05 -33.65 -0.90 -35.15 -1.35 -2.50 -2.95 -3.30 -7 -3.45 -5.25 -0.15 -5.55 -0.15 -6.30 -0.65 -0.40 -0.25 -0.80 -1.75 -1 -3.60 l-0.30 -3.20 -9.60 -0.15 -9.55 -0.10 -0.35 3.25 c-0.25 2.25 -0.60 3.40 -1.20 3.70 -0.45 0.25 -2.95 0.55 -5.55 0.65 -5.20 0.20 -6.90 0.90 -7.95 3.25 -0.45 1 -0.60 9.80 -0.60 35.35 0 32.30 0.05 34.10 0.95 35.30 2.15 2.95 2.50 3 24.05 3 18.75 0 19.85 -0.05 21.80 -1z"/>
  <path d="M10 112.85 c-1.70 -0.85 -2.80 -3.25 -4.10 -9.10 -0.95 -4.25 -1.10 -6.55 -1.10 -15.50 -0.05 -9.25 0.10 -11.15 1.10 -15.75 2.20 -9.80 6.40 -19.30 12.15 -27.50 4.95 -7 14.10 -15.60 21.70 -20.35 7.55 -4.75 20.15 -9.15 29.15 -10.20 2.70 -0.35 5.05 -0.80 5.35 -1 0.25 -0.30 -0.35 -1.30 -1.65 -2.60 -1.55 -1.60 -2.10 -2.55 -2.10 -3.70 0 -1.60 1.45 -3.15 2.95 -3.15 0.40 0 3.85 3.10 7.65 6.85 8.20 8.10 8.45 8.85 4.40 10.90 -1.35 0.70 -4.45 2.45 -6.85 3.90 -6.70 3.95 -8.70 4.60 -10.05 3.25 -0.75 -0.75 -0.80 -3.70 -0.10 -4.15 0.85 -0.55 0.55 -1.75 -0.45 -1.75 -0.50 0 -2.95 0.60 -5.35 1.30 -14.85 4.25 -27.95 13.35 -36.60 25.30 -5.80 8.05 -10.20 18.95 -11.80 29.15 -0.95 6.10 -0.65 15.60 0.75 22.25 1.70 8.20 1.75 9.55 0.35 10.80 -1.50 1.40 -3.80 1.85 -5.40 1.05z"/>
 </g>
 <g fill="#60e00b">
  <path d="M71.60 115.15 c1.35 -2.80 2.80 -6.25 4.25 -10.15 1 -2.60 2 -5.05 2.25 -5.35 0.30 -0.35 0.40 -1 0.20 -1.40 -0.20 -0.60 -1.45 -0.75 -6.75 -0.75 -3.55 0 -6.60 -0.20 -6.75 -0.45 -0.15 -0.25 1.15 -2.10 2.85 -4.10 8.15 -9.60 18.85 -22.50 19.65 -23.65 1.45 -2.25 2 -0.75 0.75 1.95 -0.95 2 -4.90 12 -5.70 14.40 -0.65 1.85 0.15 2.40 3.10 2.35 7.25 -0.20 9.55 0 9.55 0.75 0 0.40 -2.10 3.20 -4.60 6.15 -2.55 2.95 -5.55 6.50 -6.65 7.85 -6.20 7.75 -10.50 12.50 -11.40 12.65 -0.50 0.10 -0.85 0 -0.75 -0.25z"/>
 </g>
</svg>