<?xml version="1.0" encoding="utf-8"?>
<!DOCTYPE svg PUBLIC "-//W3C//DTD SVG 1.0//EN" "http://www.w3.org/TR/2001/REC-SVG-20010904/DTD/svg10.dtd">
<svg version="1.0" xmlns="http://www.w3.org/2000/svg" width="148px" height="173px" viewBox="0 0 148 173"
    preserveAspectRatio="xMidYMid meet">
    <g fill="#60e00b">
        <path
            d="M 18.75 115.50 l -8.50 -0.25 -0.15 -3.10 -0.15 -3.10 6.90 -0.15 6.90 -0.15 0 -1.50 c 0 -1.25 -0.35 -1.65 -2.45 -2.75 -4.35 -2.30 -4.15 -4.75 0.65 -7.70 1.70 -1 3.05 -1.95 3.05 -2.05 0 -0.15 -1.25 -1 -2.70 -1.95 -5.15 -3.30 -5.40 -5.55 -1 -8.20 4.25 -2.50 4.20 -2.25 0.90 -4.40 -2.30 -1.50 -3 -2.30 -3.10 -3.40 -0.20 -1.70 0.65 -2.75 4.25 -4.90 3.05 -1.85 2.95 -1.35 1.60 -7.75 l -0.65 -3.15 -7.15 0 -7.20 0 0.15 -3.10 0.15 -3.15 55 -0.25 c 30.25 -0.15 58.30 -0.20 62.30 -0.10 l 7.35 0.15 0.15 1.35 c 0.10 0.75 0.10 2.20 -0.05 3.30 l -0.25 1.90 -6.35 -0.05 -6.40 -0.10 0 1.25 c 0 1.95 0.75 3.45 2.70 5.40 2.80 2.80 2.35 4.05 -2.55 7.10 -1.20 0.70 -2.15 1.50 -2.15 1.70 0 0.25 1 0.95 2.25 1.55 2.40 1.20 4.25 3.15 4.25 4.55 0 1.10 -1.65 2.55 -4.85 4.25 -1.45 0.75 -2.50 1.60 -2.35 1.85 0.15 0.20 1.10 0.85 2.15 1.40 6.55 3.30 6.60 6.15 0.30 9.35 -1.35 0.70 -2.55 1.30 -2.65 1.40 -0.05 0.05 0.55 1.55 1.40 3.30 0.80 1.75 1.50 3.50 1.50 3.85 0 0.45 1.60 0.60 6.45 0.60 l 6.45 0 0.30 1.70 c 0.20 0.95 0.20 2.65 0 3.80 l -0.35 2.10 -53.80 -0.15 c -29.60 -0.10 -57.60 -0.30 -62.30 -0.45 z  m 33.40 -6.80 c 2.10 -0.25 2.35 -0.45 2.35 -1.50 0 -0.90 -0.45 -1.50 -1.60 -2.10 -0.90 -0.45 -2.25 -1.45 -3.05 -2.20 -2.20 -2.15 -1.25 -3.95 3.55 -6.50 1.15 -0.65 2.10 -1.35 2.10 -1.65 0 -0.25 -1.45 -1.35 -3.20 -2.40 -3.20 -1.90 -4.15 -3.30 -3.50 -5.10 0.35 -0.80 4.30 -3.75 5.05 -3.75 0.25 0 0.70 -0.25 1.05 -0.60 0.45 -0.45 0.40 -0.80 -0.25 -1.50 -0.45 -0.50 -1 -0.90 -1.30 -0.90 -0.25 0 -1.10 -0.45 -1.90 -1.05 -1 -0.70 -1.45 -1.45 -1.45 -2.45 0 -2.30 0.40 -2.80 3.80 -5.05 1.75 -1.15 3.20 -2.10 3.20 -2.20 0 -0.70 -2.10 -8.05 -2.40 -8.35 -0.25 -0.25 -5.45 -0.35 -11.65 -0.30 -10.30 0.15 -11.20 0.20 -11.15 1.05 0.05 0.45 0.10 1.30 0.15 1.90 0 0.55 0.95 1.90 2.05 3 3 2.95 2.55 4.80 -1.85 7.40 -3 1.80 -3 1.95 0.40 3.75 4.45 2.35 4.55 5.55 0.30 7.85 -1.30 0.70 -2.60 1.50 -2.90 1.80 -0.60 0.60 -0.35 0.85 3.30 3.35 2.30 1.50 2.50 1.80 2.50 3.60 0 1.80 -0.20 2.05 -2.50 3.55 -3.85 2.45 -4.55 3.05 -3.95 3.50 0.60 0.50 2.20 4.60 2.20 5.75 0 0.45 0.25 0.90 0.60 1 0.95 0.35 17.50 0.40 20.05 0.10 z  m 22.50 -0.15 c 8.20 -0.05 9.40 -0.15 9.70 -0.85 0.45 -1.15 -0.35 -2.25 -2.55 -3.45 -3.60 -2 -3.65 -4.40 -0.15 -6.55 1.15 -0.75 2.60 -1.75 3.25 -2.25 l 1.15 -0.90 -2.90 -1.85 c -1.60 -1 -3.15 -2.20 -3.50 -2.65 -1.55 -2 0 -4.40 4.25 -6.50 1.15 -0.60 2.10 -1.15 2.10 -1.25 0 -0.15 -1.10 -0.90 -2.45 -1.75 -4.40 -2.65 -4.55 -4.95 -0.65 -7.60 3.75 -2.60 4.60 -3.55 4.05 -4.55 -0.25 -0.50 -0.70 -2.20 -1 -3.75 -0.30 -1.60 -0.80 -3.05 -1.10 -3.25 -0.70 -0.45 -20.90 -0.55 -22 -0.10 -1.30 0.50 -0.10 4.20 1.95 5.85 1.20 1 1.70 1.85 1.70 2.80 0 1.75 -0.65 2.55 -3.90 4.65 -2.85 1.90 -2.80 2.15 0.30 3.40 2.10 0.80 3.60 2.75 3.60 4.55 0 1.50 -1.10 2.50 -4.85 4.40 -1.20 0.60 -2.15 1.25 -2.15 1.45 0 0.20 1.25 1.05 2.80 1.85 3.20 1.70 4.20 2.85 4.20 4.85 0 1.50 -2.40 3.60 -5.50 4.90 -1.80 0.75 -1.80 0.95 -0.50 3.35 0.55 1.05 1.15 2.60 1.30 3.50 0.30 1.55 1.10 2.10 2.70 1.85 0.40 -0.05 5 -0.15 10.15 -0.15 z  m 39.25 -0.65 c 0.85 -0.85 -0.15 -2.25 -2.55 -3.45 -2.45 -1.25 -2.85 -1.75 -2.85 -3.45 0.05 -1.70 0.80 -2.55 3.85 -4.30 1.45 -0.80 2.65 -1.70 2.65 -1.95 0 -0.30 -1.25 -1.25 -2.80 -2.20 -5 -3 -4.95 -5.50 0.10 -8.40 2.75 -1.60 3.15 -2 2.45 -2.40 -6.85 -4.05 -6.90 -6.25 -0.35 -10.45 2.45 -1.55 2.50 -1.80 0.70 -7.35 l -0.85 -2.70 -10.75 0 -10.75 0 0.05 2 c 0.05 1.60 0.40 2.25 1.80 3.50 3.35 2.85 2.95 4.85 -1.55 7.70 -1.40 0.90 -2.55 1.80 -2.55 2 0 0.20 1.15 0.90 2.55 1.55 5 2.35 5 5.60 0.10 8.25 -1.55 0.85 -2.90 1.80 -3 2.10 -0.15 0.35 0.65 1.05 1.75 1.60 2.80 1.40 5.10 3.50 5.10 4.55 0 1.80 -0.65 2.55 -4.05 4.50 l -3.40 2 0.95 1.65 c 0.50 0.85 1.15 2.55 1.50 3.75 l 0.55 2.10 10.35 0 c 7.20 0 10.60 -0.20 11 -0.60 z " />
    </g>
    <g fill="#e6e8f0">
        <path
            d="M 25.40 154.45 c -0.80 -0.45 -0.90 -1.50 -0.90 -10.05 l 0 -9.50 -1.45 0.25 c -0.80 0.15 -2 0.45 -2.75 0.65 -0.90 0.20 -1.30 0.10 -1.30 -0.30 0 -0.35 1.60 -4.30 3.50 -8.80 1.95 -4.50 3.50 -8.40 3.50 -8.65 0 -0.25 0.35 -0.70 0.80 -1.05 0.60 -0.55 0.85 -0.55 1.40 0.05 0.55 0.60 7.15 15.60 8 18.15 0.35 0.95 0 0.95 -3.80 0 l -1.40 -0.30 -0.10 9.90 -0.15 9.95 -2.25 0.10 c -1.25 0.10 -2.65 -0.10 -3.10 -0.40 z " />
        <path
            d="M 55.10 154.30 c -0.20 -0.30 -0.35 -4.50 -0.45 -9.30 -0.05 -4.80 -0.10 -9.05 -0.10 -9.45 -0.05 -0.65 -1.55 -0.60 -4.40 0.25 -1 0.30 -0.95 0.05 0.85 -4.65 2.45 -6.50 5.10 -12.30 5.75 -12.75 0.25 -0.20 0.95 -0.40 1.55 -0.40 0.85 0 1.60 1.40 4.65 8.55 3.95 9.25 4.05 10.20 0.90 9.05 -3 -1.10 -2.90 -1.40 -2.75 8.80 0.05 5.15 -0.05 9.65 -0.30 10 -0.45 0.80 -5.20 0.70 -5.70 -0.10 z " />
        <path
            d="M 85.25 154.60 c -0.15 -0.15 -0.25 -4.60 -0.25 -9.90 0 -5.30 -0.20 -9.75 -0.45 -9.90 -0.25 -0.15 -1.25 0.05 -2.25 0.45 -1.65 0.70 -1.85 0.70 -2.15 0 -0.15 -0.45 0.05 -1.65 0.50 -2.65 0.40 -1 1.95 -4.75 3.40 -8.30 1.45 -3.50 2.90 -6.50 3.25 -6.65 1.30 -0.50 2.55 0.90 3.95 4.20 0.75 1.85 2.25 5.45 3.35 8 2.30 5.55 2.40 6.40 0.65 5.95 -0.70 -0.15 -1.80 -0.45 -2.50 -0.60 l -1.25 -0.30 0 9.40 c 0 5.20 -0.20 9.70 -0.40 10 -0.35 0.55 -5.30 0.80 -5.85 0.30 z " />
        <path
            d="M 115.90 154.45 c -0.80 -0.45 -0.90 -1.45 -0.90 -9.90 0 -5.15 -0.15 -9.50 -0.30 -9.70 -0.20 -0.15 -1.15 0 -2.10 0.45 -3.25 1.35 -3.30 1.50 3.35 -15.30 0.70 -1.80 1.15 -2.30 2.20 -2.40 1.20 -0.15 1.45 0.15 2.85 3.25 2.30 5 6 14 6 14.60 0 0.80 -1.80 0.65 -3.50 -0.20 -1.25 -0.65 -1.45 -0.65 -1.70 0.05 -0.15 0.45 -0.30 4.90 -0.30 9.95 0 10.05 0.10 9.75 -3.15 9.75 -0.90 0 -2 -0.25 -2.45 -0.55 z " />
        <path
            d="M 54.60 48.15 c -3.35 -8.10 -5.05 -13.10 -4.55 -13.40 0.25 -0.20 1.25 -0.05 2.20 0.30 0.95 0.35 1.85 0.50 2 0.35 0.20 -0.15 0.30 -4.45 0.30 -9.60 -0.05 -8.65 0.05 -9.30 0.95 -9.80 1.05 -0.55 3.50 -0.65 4.70 -0.20 0.70 0.25 0.80 1.60 0.80 10 0 5.35 0.20 9.70 0.45 9.70 0.25 0 1.25 -0.35 2.30 -0.80 3.05 -1.25 3.10 -0.45 0.35 6.40 -4.60 11.25 -4.95 11.90 -6.30 11.90 -1 0 -1.45 -0.65 -3.20 -4.85 z " />
        <path
            d="M 116.85 52.40 c -0.15 -0.35 -1.60 -4.05 -3.30 -8.25 -1.70 -4.20 -3.05 -8.10 -3.05 -8.70 0 -0.90 0.20 -1 1.40 -0.75 3.05 0.75 2.85 1.35 3 -8.65 0.05 -5.75 0.35 -9.45 0.65 -9.90 0.35 -0.35 1.45 -0.65 2.45 -0.65 3.65 0 3.50 -0.40 3.50 9.70 0 4.95 0.20 9.40 0.50 9.80 0.40 0.60 0.70 0.60 2.30 -0.15 2.45 -1.20 3.15 -0.55 2.10 2 -0.45 1.05 -2 4.60 -3.40 7.90 -1.45 3.30 -2.70 6.50 -2.85 7.15 -0.20 0.80 -0.60 1.10 -1.65 1.10 -0.75 0 -1.50 -0.30 -1.65 -0.60 z " />
        <path
            d="M 25.65 51.15 c -0.30 -0.80 -1.95 -4.60 -3.60 -8.45 -1.70 -3.90 -3.05 -7.35 -3.05 -7.60 0 -1 0.90 -1.10 2.75 -0.30 1 0.40 2 0.60 2.20 0.45 0.15 -0.20 0.30 -4.50 0.30 -9.60 0 -9.20 0 -9.30 1.15 -9.70 0.60 -0.25 2.15 -0.30 3.35 -0.10 l 2.25 0.30 0 9.65 c 0 5.35 0.20 9.70 0.45 9.70 0.25 0 1.25 -0.35 2.20 -0.75 1 -0.40 2.05 -0.75 2.35 -0.75 0.60 0 0.65 1.65 0.05 2.25 -0.25 0.30 -1.50 3 -2.80 6 -4.65 10.95 -4.25 10.25 -5.70 10.25 -0.95 0 -1.45 -0.35 -1.90 -1.35 z " />
        <path
            d="M 87.85 52.10 c -0.85 -0.10 -1.60 -0.60 -1.85 -1.25 -4.50 -10.75 -6 -14.65 -6 -15.65 0 -1.40 0.25 -1.45 2 -0.45 0.70 0.40 1.65 0.70 2.15 0.75 0.80 0 0.85 -0.80 0.85 -9.70 0 -10.70 -0.10 -10.30 3.25 -10.30 3.35 0 3.25 -0.40 3.25 10.30 0 9 0.05 9.70 0.90 9.70 0.50 0 1.10 -0.20 1.40 -0.45 0.25 -0.25 0.95 -0.60 1.60 -0.80 0.90 -0.25 1.10 -0.15 1.10 0.85 0 1 -2.20 6.50 -5.55 13.75 -0.50 1.20 -0.95 2.35 -0.95 2.60 0 0.70 -0.55 0.85 -2.15 0.65 z " />
    </g>
</svg>