<?xml version="1.0" encoding="utf-8"?>
<!DOCTYPE svg PUBLIC "-//W3C//DTD SVG 1.0//EN" "http://www.w3.org/TR/2001/REC-SVG-20010904/DTD/svg10.dtd">
<svg version="1.0" xmlns="http://www.w3.org/2000/svg" width="149px" height="163px" viewBox="0 0 149 163" preserveAspectRatio="xMidYMid meet">
 <g fill="#ffffff">
 </g>
 <g fill="#d8dbe8">
  <path d="M98 148.75 c-8.90 -1.60 -16.10 -6.95 -20.40 -15.15 -2.70 -5.20 -3.55 -12.05 -2.35 -18.45 2.85 -14.80 17.95 -24.90 32.90 -21.95 11 2.15 19.45 10.35 22.40 21.65 3.50 13.35 -5.25 28.65 -18.80 32.95 -4.40 1.40 -9.40 1.75 -13.75 0.95z m11.70 -6.35 c8.30 -2.55 14.25 -9.85 15.45 -18.95 0.60 -4.65 0.05 -7.90 -2.20 -12.45 -6.95 -13.85 -25.45 -17.05 -36.25 -6.30 -5.05 5.10 -7 10.40 -6.55 17.95 0.20 3.75 0.50 4.95 2.05 8.05 2.20 4.45 5.60 8 9.85 10.30 5.75 3.10 10.75 3.50 17.65 1.40z"/>
  <path d="M101.30 122.75 c-1.20 -1.20 -1.45 -3.85 -1.15 -11.70 0.20 -6.20 0.40 -7.35 1.15 -7.90 1.15 -0.85 1.80 -0.80 3 0.05 0.85 0.65 1 1.55 1.20 7.65 l0.25 6.90 7.10 0.25 c4.60 0.15 7.30 0.45 7.70 0.85 0.85 0.85 0.75 3.65 -0.10 4.20 -0.40 0.25 -4.70 0.45 -9.55 0.45 -7.25 0 -8.95 -0.15 -9.60 -0.75z"/>
  <path d="M38.85 141.45 c-2.85 -0.65 -4.65 -1.75 -6.10 -3.70 -2.85 -3.65 -2.75 -2.35 -2.85 -55.25 -0.10 -48.25 -0.05 -48.75 0.95 -51.05 0.95 -2.20 3.15 -4.30 5.40 -5.20 0.55 -0.25 3.50 -0.55 6.50 -0.70 l5.50 -0.30 0.40 -4.25 c0.40 -4.75 1.15 -6 4.60 -7.55 1.75 -0.75 3.75 -0.90 15.25 -1 14.50 -0.15 14.75 -0.10 17.60 2.90 1.40 1.45 2.35 4.60 2.40 7.70 0 2.30 0.40 2.45 6 2.40 6.95 -0.05 10.55 2.15 11.95 7.30 0.35 1.30 0.55 10.30 0.55 26.40 0 25.70 -0.10 26.70 -2.25 27.55 -1.55 0.60 -3.65 0.30 -4.80 -0.65 l-1.20 -0.95 -0.15 -18.75 c-0.10 -15.70 -0.25 -18.80 -0.85 -19.05 -1.05 -0.40 -59.10 -0.45 -59.70 -0.05 -0.60 0.35 -0.80 73 -0.25 74.45 0.30 0.75 1.95 0.80 14.80 0.80 13.15 -0.05 14.60 0.05 15.50 0.80 1.30 1.20 1 3.25 -0.60 4.05 -0.95 0.50 -4.75 0.65 -15.10 0.60 -7.60 0 -14.10 0.10 -14.40 0.30 -1.20 0.75 0.15 4.80 1.75 5.45 0.45 0.15 7 0.30 14.50 0.30 13.65 0 13.70 0 15.05 1.15 1.85 1.65 1.85 4.05 0 5.70 -1.35 1.15 -1.40 1.15 -14.95 1.10 -7.50 -0.05 -14.45 -0.25 -15.50 -0.50z m59.05 -100.70 c0.40 -0.15 0.60 -1.25 0.60 -3.20 0 -2.45 -0.20 -3.10 -0.95 -3.55 -0.65 -0.30 -10.85 -0.50 -29.75 -0.50 -25.45 0 -28.80 0.10 -29.50 0.80 -0.95 0.90 -1.10 4.75 -0.25 6.25 0.50 1 0.80 1 29.85 0.70 16.15 -0.20 29.65 -0.40 30 -0.50z m-16 -15.85 c1.45 -1.45 0.35 -6.10 -1.50 -6.55 -0.65 -0.20 -6.55 -0.35 -13.05 -0.40 -13.95 -0.05 -13.85 -0.10 -13.85 4.35 0 1.60 0.25 2.70 0.65 2.85 0.30 0.15 6.55 0.30 13.90 0.30 9.70 0.05 13.40 -0.10 13.85 -0.55z"/>
 </g>
 <g fill="#60e00b">
  <path d="M60.45 107.15 c3.70 -8.95 6.60 -16.75 6.30 -17.05 -0.20 -0.20 -3.75 -0.35 -7.90 -0.35 -8.55 0 -9 -0.25 -6.25 -3.15 0.95 -1.05 3.50 -4 5.70 -6.60 2.15 -2.60 4.40 -5.30 5 -6 1.45 -1.70 7.50 -8.85 9.95 -11.85 1.15 -1.30 2.55 -3.15 3.20 -4 0.60 -0.90 1.45 -1.65 1.85 -1.65 0.90 0 0.90 0.15 -0.30 2.50 -0.55 1.05 -2 4.60 -3.25 7.85 -1.25 3.25 -2.85 7.20 -3.50 8.80 -0.70 1.60 -1.25 3 -1.25 3.15 0 0.10 3.70 0.20 8.25 0.20 4.55 0 8.25 0.15 8.25 0.40 0 0.20 -0.50 0.90 -1.15 1.60 -1.50 1.65 -17.85 21.25 -21.55 25.90 -1.70 2.10 -3.30 3.60 -3.85 3.60 -0.85 0 -0.80 -0.25 0.50 -3.35z"/>
 </g>
</svg>