<svg class="img-fluid" id="outputsvg" xmlns="http://www.w3.org/2000/svg" width="274" height="308"
    viewBox="0 0 2740 3080">
    <g id="l6jpnCAOJ7AP1n5qK1G22Sh" fill="rgb(255,255,255)" style="transform: none;">
        <g style="transform: none;"></g>
    </g>
    <g id="l6QdprFnQCXE7VlrRKCxybL" fill="rgb(214,218,230)" style="transform: none;">
        <g style="transform: none;">
            <path id="pKLCQiTnY"
                d="M1275 2894 c-122 -63 -354 -211 -465 -297 -299 -233 -463 -425 -543 -637 -21 -53 -22 -74 -25 -642 -2 -402 0 -594 8 -607 6 -12 25 -22 48 -26 123 -19 169 -29 275 -61 282 -84 557 -221 739 -365 39 -31 72 -27 119 16 183 165 659 361 970 400 90 11 84 -36 81 653 -3 564 -5 610 -22 660 -73 208 -333 462 -768 750 -204 134 -292 182 -335 182 -18 0 -54 -12 -82 -26z m207 -205 c265 -165 442 -301 609 -468 131 -132 150 -155 190 -235 l44 -89 3 -521 c1 -287 -2 -527 -6 -534 -5 -7 -64 -27 -131 -43 -229 -54 -538 -184 -729 -305 l-102 -66 -38 23 c-169 101 -291 163 -453 227 -142 57 -330 116 -404 127 -95 14 -86 -43 -83 548 l3 522 25 60 c97 229 389 499 822 759 128 77 118 77 250 -5z">
            </path>
            <path id="pM0DBB5kn"
                d="M1326 2524 c-12 -12 -16 -35 -15 -97 1 -109 8 -131 42 -135 37 -4 47 26 47 139 0 87 -1 90 -26 99 -32 13 -30 13 -48 -6z">
            </path>
            <path id="ptxC73Tj3"
                d="M530 1614 c0 -57 13 -64 108 -63 112 1 134 8 143 42 11 40 -11 47 -140 47 l-111 0 0 -26z"></path>
            <path id="pzrTEcVRM"
                d="M1945 1624 c-43 -44 8 -74 127 -74 95 0 125 14 114 54 -3 12 -6 24 -6 29 0 4 -49 7 -109 7 -88 0 -113 -3 -126 -16z">
            </path>
            <path id="pcbpebZtb"
                d="M1334 896 c-16 -12 -20 -29 -22 -116 -4 -109 3 -130 44 -130 48 0 57 25 51 134 -4 80 -9 103 -23 113 -22 16 -26 16 -50 -1z">
            </path>
        </g>
    </g>
    <g id="l4LeTT5wWch1hLUNZ9gEXHJ" fill="rgb(96,224,11)" style="transform: none;">
        <g style="transform: none;">
            <path id="pgCOLRUVw"
                d="M1140 2223 c0 -5 11 -35 24 -68 91 -221 159 -393 163 -412 l5 -23 -196 0 c-135 0 -196 -3 -196 -11 0 -12 87 -119 108 -132 6 -4 12 -13 12 -18 0 -6 39 -54 87 -108 89 -99 226 -261 318 -375 137 -171 135 -169 135 -146 0 12 -43 130 -95 261 -52 131 -95 246 -95 254 0 8 6 15 13 15 6 1 92 0 190 0 125 -1 177 3 177 10 0 7 -44 64 -98 128 -54 65 -190 227 -302 362 -112 135 -211 250 -220 257 -17 14 -30 16 -30 6z">
            </path>
        </g>
    </g>
</svg>