<svg xmlns="http://www.w3.org/2000/svg" width="358" height="334" viewBox="0 0 3580 3340">
    <g id="l4KlYGQTiz4RdjOLQuTv9f9" fill="rgb(255,255,255)" style="transform: none; transform-origin: 50% 50%;">
        <g style="transform: none;"></g>
    </g>
    <g fill="rgb(213,220,230)" style="transform: none; transform-origin: 50% 50%;">
        <g style="transform: none;">
            <path id="pIIh2CCb8"
                d="M1590 3160 c-200 -37 -391 -208 -453 -404 -25 -80 -28 -231 -7 -321 18 -79 68 -170 130 -238 31 -34 62 -72 69 -85 9 -17 12 -209 10 -812 l-2 -790 33 -67 c41 -82 98 -141 176 -179 53 -26 69 -29 154 -29 89 0 99 2 158 34 77 42 144 115 175 191 l22 55 3 799 3 799 62 67 c75 81 113 149 138 244 23 88 25 230 4 310 -63 241 -290 422 -540 432 -49 1 -110 -1 -135 -6z m210 -161 c113 -26 225 -115 279 -222 88 -175 54 -363 -94 -512 -37 -37 -71 -79 -76 -92 -5 -14 -9 -363 -9 -824 l0 -800 -25 -49 c-46 -91 -142 -135 -237 -110 -55 15 -122 81 -137 135 -7 28 -11 279 -11 815 0 426 -5 793 -10 814 -6 28 -27 58 -73 105 -75 77 -109 132 -132 218 -52 188 42 391 225 487 98 52 182 61 300 35z">
            </path>
            <path id="p1CzvSUGoD"
                d="M1620 2631 c-74 -24 -122 -66 -161 -141 -18 -35 -23 -61 -23 -115 0 -80 13 -112 80 -191 l44 -51 0 -579 c0 -552 1 -581 20 -622 43 -95 187 -95 236 1 15 29 17 93 20 622 l3 590 41 39 c125 116 109 313 -34 411 -52 36 -64 40 -129 42 -40 1 -83 -1 -97 -6z m150 -120 c72 -38 102 -147 60 -216 -11 -18 -38 -45 -60 -60 l-40 -28 0 -599 c0 -394 -4 -606 -10 -619 -13 -24 -36 -25 -49 -1 -6 11 -10 238 -10 583 0 310 0 581 0 601 -1 33 -6 41 -41 63 -55 35 -80 78 -80 141 0 44 5 56 37 93 20 24 46 47 57 51 36 15 100 11 136 -9z">
            </path>
            <path id="p17dVYrjce"
                d="M2776 2278 c-33 -31 -116 -198 -116 -236 0 -33 24 -48 59 -37 29 9 151 210 151 249 0 20 -28 46 -50 46 -10 0 -30 -10 -44 -22z">
            </path>
            <path id="pFgUqioyB"
                d="M2296 1958 c-18 -26 -6 -56 27 -62 12 -3 58 -12 102 -21 174 -36 315 -133 398 -275 58 -100 72 -156 71 -295 0 -97 -4 -131 -22 -179 -43 -117 -129 -224 -239 -299 -64 -43 -192 -87 -253 -87 -61 0 -92 -22 -88 -63 3 -32 4 -32 64 -35 243 -12 502 161 599 401 141 343 2 713 -328 876 -98 48 -148 60 -244 61 -62 0 -74 -3 -87 -22z">
            </path>
            <path id="pB5kAoIkJ"
                d="M974 1885 c-23 -23 -25 -32 -22 -92 4 -79 -9 -89 -55 -45 -41 38 -71 45 -98 23 -32 -26 -18 -53 72 -147 89 -93 82 -68 83 -281 1 -68 -3 -123 -7 -123 -5 0 -69 32 -142 71 -151 81 -150 79 -184 219 -25 97 -46 126 -85 116 -37 -9 -48 -45 -34 -106 6 -27 9 -52 6 -55 -3 -3 -25 7 -49 23 -54 36 -83 46 -115 38 -22 -6 -25 -11 -22 -44 3 -33 9 -40 62 -72 32 -20 59 -40 60 -45 0 -6 -17 -16 -39 -23 -53 -17 -77 -40 -73 -71 5 -37 44 -43 141 -20 136 33 138 33 277 -51 68 -41 124 -79 123 -85 -1 -12 -155 -107 -230 -142 l-53 -24 -85 21 c-46 12 -104 20 -127 18 -42 -3 -43 -4 -43 -38 0 -36 13 -47 79 -67 48 -13 41 -30 -24 -63 -76 -38 -96 -73 -61 -101 13 -11 30 -19 38 -19 17 0 92 37 116 58 25 22 30 10 20 -51 -11 -66 -2 -94 32 -103 39 -10 52 9 89 135 19 62 38 116 42 120 5 5 43 26 84 49 41 22 100 54 130 71 30 17 60 31 66 31 8 0 10 -145 4 -312 0 -4 -38 -50 -84 -102 -88 -98 -97 -124 -55 -146 22 -12 44 -4 91 33 20 16 41 26 47 23 6 -4 8 -33 4 -74 -5 -72 4 -95 43 -106 40 -12 55 13 61 102 3 45 8 82 12 82 3 0 21 -15 41 -34 47 -45 74 -52 99 -27 12 12 21 27 21 35 0 18 -57 88 -121 147 l-49 46 0 428 c0 487 -6 452 90 534 79 68 98 125 50 151 -25 13 -58 0 -94 -39 -17 -17 -33 -31 -38 -31 -4 0 -8 33 -8 73 0 109 -33 145 -86 92z">
            </path>
            <path id="ps5YTZ3Ff"
                d="M3190 1902 c-22 -7 -171 -102 -197 -125 -29 -26 -31 -73 -3 -82 29 -9 82 11 174 63 84 49 111 79 101 111 -6 21 -51 41 -75 33z">
            </path>
            <path id="ppGkXvG4m"
                d="M2550 1735 c0 -20 5 -25 25 -25 16 0 25 -6 25 -15 0 -11 11 -15 36 -15 31 0 35 2 24 15 -12 14 -93 65 -104 65 -3 0 -6 -11 -6 -25z">
            </path>
            <path id="peV2FyOIp"
                d="M2700 1616 c0 -20 5 -36 10 -36 6 0 10 -6 10 -14 0 -8 4 -16 8 -18 10 -3 62 -129 62 -147 0 -6 9 -11 20 -11 25 0 25 12 0 85 -20 59 -69 143 -96 165 -12 11 -14 7 -14 -24z">
            </path>
            <path id="pREL44ZH9"
                d="M3183 1360 c-88 -5 -107 -15 -101 -51 5 -39 42 -49 179 -49 l127 0 12 30 c7 16 10 37 6 45 -8 22 -50 36 -99 33 -23 -2 -79 -5 -124 -8z">
            </path>
            <path id="p2Xy22Xqb"
                d="M2780 1175 c-7 -25 -28 -71 -46 -102 -19 -31 -34 -69 -34 -86 l0 -30 26 24 c31 29 90 149 99 202 6 33 5 37 -13 37 -15 0 -23 -11 -32 -45z">
            </path>
            <path id="p1KzqdN0Z"
                d="M2600 915 c0 -8 -5 -15 -12 -15 -6 0 -42 -12 -80 -27 -47 -20 -68 -33 -68 -45 0 -11 8 -18 20 -18 31 0 141 54 180 88 l35 31 -37 1 c-27 0 -38 -4 -38 -15z">
            </path>
            <path id="p2NS9NSEy"
                d="M2982 918 c-17 -17 -15 -52 6 -71 44 -40 197 -127 223 -127 46 0 67 61 32 92 -29 26 -208 118 -229 118 -11 0 -25 -5 -32 -12z">
            </path>
            <path id="pA0cdTk7Y"
                d="M2670 605 c-20 -24 -6 -73 52 -175 60 -106 90 -129 128 -95 11 10 20 28 20 39 0 24 -90 188 -123 224 -24 25 -59 29 -77 7z">
            </path>
        </g>
    </g>
    <g id="lgaq2X3UUUCtkWZrRC60Dl" fill="rgb(96,224,11)" style="transform: none; transform-origin: 50% 50%;">
        <g style="transform: none;">
            <path id="puy3atgi6"
                d="M2391 1786 c-8 -9 -10 -147 -9 -492 l3 -479 37 -3 c55 -5 173 48 240 108 66 59 113 128 144 216 34 93 34 245 0 338 -48 133 -127 223 -256 289 -76 39 -138 48 -159 23z">
            </path>
        </g>
    </g>
</svg>